<svg class="hero-design" width="1176" height="710" viewBox="0 0 1176 710">
  <g id="Masterpiece" transform="translate(-590 -166)">
    <g id="Rectangle_3" data-name="Rectangle 3" transform="translate(1184 166)" fill="#00fff1" stroke="#707070" stroke-linejoin="round" stroke-width="1" opacity="0.83">
      <rect width="196" height="168" rx="30" stroke="none"/>
      <rect x="0.5" y="0.5" width="195" height="167" rx="29.5" fill="none"/>
    </g>
    <g id="Rectangle_4" data-name="Rectangle 4" transform="translate(982 355)" fill="#00fff1" stroke="#707070" stroke-linejoin="round" stroke-width="1" opacity="0.89">
      <rect width="196" height="168" rx="30" stroke="none"/>
      <rect x="0.5" y="0.5" width="195" height="167" rx="29.5" fill="none"/>
    </g>
    <g id="Rectangle_5" data-name="Rectangle 5" transform="translate(983 708)" fill="#f85ecd" stroke="#707070" stroke-linejoin="round" stroke-width="1" opacity="0.51">
      <rect width="196" height="168" rx="30" stroke="none"/>
      <rect x="0.5" y="0.5" width="195" height="167" rx="29.5" fill="none"/>
    </g>
    <g id="Rectangle_6" data-name="Rectangle 6" transform="translate(1172 523)" fill="#f85ecd" stroke="#707070" stroke-linejoin="round" stroke-width="1">
      <rect width="196" height="168" rx="30" stroke="none"/>
      <rect x="0.5" y="0.5" width="195" height="167" rx="29.5" fill="none"/>
    </g>
    <g id="Rectangle_8" data-name="Rectangle 8" transform="translate(786 540)" fill="#00fff1" stroke="#707070" stroke-linejoin="round" stroke-width="1" opacity="0.75">
      <rect width="196" height="168" rx="30" stroke="none"/>
      <rect x="0.5" y="0.5" width="195" height="167" rx="29.5" fill="none"/>
    </g>
    <g id="Rectangle_10" data-name="Rectangle 10" transform="translate(590 708)" fill="#00fff1" stroke="#707070" stroke-linejoin="round" stroke-width="1" opacity="0.5">
      <rect width="196" height="168" rx="30" stroke="none"/>
      <rect x="0.5" y="0.5" width="195" height="167" rx="29.5" fill="none"/>
    </g>
    <g id="Rectangle_7" data-name="Rectangle 7" transform="translate(1374 353)" fill="#f85ecd" stroke="#707070" stroke-linejoin="round" stroke-width="1" opacity="0.5">
      <rect width="196" height="168" rx="30" stroke="none"/>
      <rect x="0.5" y="0.5" width="195" height="167" rx="29.5" fill="none"/>
    </g>
    <g id="Rectangle_9" data-name="Rectangle 9" transform="translate(1570 187)" fill="#f85ecd" stroke="#707070" stroke-linejoin="round" stroke-width="1">
      <rect width="196" height="168" rx="30" stroke="none"/>
      <rect x="0.5" y="0.5" width="195" height="167" rx="29.5" fill="none"/>
    </g>
    <g id="Ellipse_2" data-name="Ellipse 2" transform="translate(982 523)" fill="#fff" stroke="#707070" stroke-width="1">
      <ellipse cx="95" cy="92.5" rx="95" ry="92.5" stroke="none"/>
      <ellipse cx="95" cy="92.5" rx="94.5" ry="92" fill="none"/>
    </g>
    <g id="Ellipse_3" data-name="Ellipse 3" transform="translate(1184 336)" fill="#6e00ff" stroke="#707070" stroke-width="1">
      <ellipse cx="95" cy="92.5" rx="95" ry="92.5" stroke="none"/>
      <ellipse cx="95" cy="92.5" rx="94.5" ry="92" fill="none"/>
    </g>
  </g>
</svg>
